<svg width="406" height="500" viewBox="0 0 406 500" fill="none" xmlns="http://www.w3.org/2000/svg">
<path d="M1.29871 439.208H9.87013V491.753H42.3507V499.208H1.29871V439.208Z" fill="#ED9521"/>
<path d="M52.2078 439.208H60.7792V499.208H52.2078V439.208Z" fill="#ED9521"/>
<path d="M89.4935 495.909C84.6364 493.247 80.8182 489.584 78.052 484.896C75.2857 480.208 73.8961 474.987 73.8961 469.208C73.8961 463.442 75.2857 458.208 78.052 453.519C80.8182 448.831 84.6364 445.169 89.4935 442.506C94.3507 439.844 99.8052 438.519 105.87 438.519C111.87 438.519 117.299 439.844 122.156 442.506C127.013 445.169 130.818 448.818 133.558 453.48C136.299 458.143 137.675 463.377 137.675 469.208C137.675 475.039 136.299 480.286 133.558 484.935C130.818 489.597 127.013 493.247 122.156 495.909C117.299 498.571 111.87 499.896 105.87 499.896C99.8182 499.896 94.3507 498.558 89.4935 495.909ZM117.74 489.26C121.26 487.26 124.026 484.506 126.052 480.987C128.078 477.468 129.091 473.545 129.091 469.195C129.091 464.857 128.078 460.922 126.052 457.416C124.026 453.896 121.247 451.143 117.74 449.143C114.221 447.143 110.273 446.143 105.87 446.143C101.468 446.143 97.4805 447.143 93.9091 449.143C90.3377 451.143 87.5325 453.896 85.5065 457.416C83.4805 460.935 82.4675 464.857 82.4675 469.195C82.4675 473.532 83.4805 477.468 85.5065 480.987C87.5325 484.506 90.3377 487.26 93.9091 489.26C97.4805 491.26 101.468 492.26 105.87 492.26C110.273 492.26 114.221 491.26 117.74 489.26Z" fill="#ED9521"/>
<path d="M202.39 439.208V499.208H195.364L159.364 454.468V499.208H150.792V439.208H157.818L193.818 483.948V439.208H202.39Z" fill="#ED9521"/>
<path d="M291.948 439.208V499.208H289.545L246.948 444.519V499.208H244.039V439.208H246.442L289.039 493.896V439.208H291.948Z" fill="#ED9521"/>
<path d="M316.805 441.857V469.286H349.377V471.857H316.805V499.195H313.896V439.195H353.234V441.857H316.805Z" fill="#ED9521"/>
<path d="M379.714 441.857H357.688V439.195H404.571V441.857H382.545V499.195H379.714V441.857Z" fill="#ED9521"/>
<path d="M200.142 2.98701C230.917 2.98701 259.051 12.0649 273.281 21.0649L284.753 28.3117L277.404 16.9221C275.843 14.5065 273.814 12.3247 271.317 10.3896C282.789 13.9091 292.323 20.3766 298.736 29.2727C306.579 40.1429 308.972 53.3506 305.603 66.8312C291.413 56.4545 271.798 46.5455 252.613 36.9221C252.73 36.9091 252.847 36.8961 252.951 36.8701L259.142 35.8701L254.46 31.7013C237.238 16.3377 209 7.45455 172.294 5.72727C180.943 3.90909 190.257 2.98701 200.142 2.98701ZM200.142 0C184 0 167.663 2.46753 153.121 8.45455C155.033 8.41558 156.932 8.4026 158.818 8.4026C198.997 8.4026 232.582 16.1818 252.469 33.9221C251.819 34.026 251 34.0779 250.037 34.0779C246.07 34.0779 239.67 33.1039 233.102 30.4156C258.531 43.5195 288.915 57.3247 307.268 71.8312C318.845 37.1429 293.468 4.33766 250.115 4.33766C249.66 4.33766 249.192 4.33766 248.736 4.35065C260.833 6.76623 270.172 11.1948 274.907 18.5195C258.713 8.31169 229.746 0 200.142 0Z" fill="url(#paint0_linear_2_2246)"/>
<path fill-rule="evenodd" clip-rule="evenodd" d="M265.923 232.933L269.356 234.775C296.886 249.543 320.211 269.269 331.389 303.418C332.62 301.249 333.458 298.447 333.968 295.089C334.675 290.442 334.729 284.922 334.47 278.948L334.066 269.631L337.359 278.356C342.176 291.119 342.451 305.932 340.219 319.451C337.988 332.965 333.222 345.363 327.778 353.324C326.228 355.59 322.598 354.605 322.541 351.784C321.945 322.791 312.03 304.601 300.326 288.402C297.635 284.677 294.831 281.038 292.016 277.386C282.625 265.2 273.113 252.857 267.245 236.598L265.923 232.933ZM271.513 239.364C277.238 253.295 285.642 264.205 294.214 275.333C297.071 279.042 299.946 282.776 302.748 286.653C314.616 303.08 324.825 321.759 325.519 351.332C330.579 343.796 335.123 331.981 337.272 318.965C338.833 309.508 339.115 299.508 337.464 290.137C337.357 292.02 337.181 293.828 336.921 295.538C336.175 300.447 334.702 304.748 331.943 307.707L330.169 309.609L329.42 307.118C319.386 273.743 297.788 254.101 271.513 239.364Z" fill="url(#paint1_linear_2_2246)"/>
<path fill-rule="evenodd" clip-rule="evenodd" d="M176.044 38.2989C190.718 31.6454 209.16 31.6966 221.88 46.9931L225.935 51.8683L220.131 49.3151C215.594 47.3194 206.21 46.1608 196.649 47.3968C187.144 48.6256 177.996 52.1513 173.312 58.9785C172.333 61.869 173.306 65.6644 175.499 69.9939C177.532 74.0065 180.415 78.1062 183.012 81.7999C183.222 82.0985 183.43 82.3945 183.636 82.6876L183.636 82.6884C185.455 85.2842 189.278 85.3765 191.208 82.8789L192.645 81.0196L193.718 83.1101C197.658 90.7838 199.412 99.3409 200.587 107.348C200.947 109.801 201.252 112.185 201.544 114.477C202.22 119.773 202.834 124.578 203.925 128.61C211.183 155.415 222.468 181.007 238.834 203.378C244.048 210.501 247.618 218.424 245.331 225.604C243.151 232.444 235.918 237.871 221.905 241.264C228.149 247.081 234.889 248.659 240.542 247.555C246.802 246.334 251.915 241.802 253.826 235.624L255.245 231.037L256.678 235.619C264.878 261.825 277.097 277.249 287.812 290.776C291.83 295.848 295.636 300.653 298.94 305.66C304.987 314.822 309.22 324.555 309.606 337.594C309.989 350.578 306.553 366.711 297.529 388.697L296.147 388.13L297.53 388.693C297.53 388.694 297.529 388.696 297.529 388.697C296.463 391.304 292.643 390.783 292.298 388.003C292.298 388.004 292.298 388.006 292.298 388.007L293.78 387.818L292.298 388.002C292.298 388.002 292.298 388.002 292.298 388.003C288.062 354.777 269.87 335.826 250.783 317.661C249.598 316.534 248.409 315.408 247.219 314.282C230.194 298.174 213.048 281.95 205.955 256.229C206.464 254.934 207.042 253.669 207.693 252.438L206.372 251.74L204.915 252.067C205.232 253.482 205.579 254.869 205.955 256.229C201.456 267.67 202.304 281.509 205.739 295.403C209.553 310.828 216.486 326.048 222.372 337.59C222.371 337.587 222.369 337.584 222.368 337.581L221.044 338.273L222.375 337.594C222.374 337.593 222.373 337.591 222.372 337.59C223.467 339.703 220.806 341.636 219.102 340.116C219.103 340.116 219.103 340.117 219.103 340.117L220.095 339L219.098 340.112C219.1 340.114 219.101 340.115 219.102 340.116C217.879 339.03 216.637 337.929 215.378 336.814C198.397 321.768 178.524 304.159 162.448 284.925C145.199 264.289 132.118 241.55 131.831 217.852C131.831 217.853 131.831 217.854 131.831 217.855L133.325 217.831L131.831 217.849C131.831 217.85 131.831 217.851 131.831 217.852C131.604 203.682 137.462 190.711 145.211 178.343C149.089 172.153 153.47 166.071 157.838 160.044C158.063 159.733 158.288 159.423 158.513 159.112C162.664 153.387 166.781 147.709 170.479 141.97L170.489 141.955L170.489 141.955C178.14 130.395 180.806 116.968 177.953 104.487C175.103 92.025 166.722 80.3782 152.032 72.4035L151.343 72.0299L151.259 71.2513C150.563 64.8074 153.188 58.1893 157.691 52.4336C162.206 46.6637 168.703 41.6274 176.044 38.2989ZM154.165 70.1682C169.114 78.5095 177.856 90.6621 180.865 103.821C183.915 117.165 181.043 131.417 172.985 143.596C169.243 149.403 165.083 155.14 160.946 160.846C160.716 161.163 160.486 161.48 160.257 161.797C155.882 167.832 151.559 173.837 147.742 179.929C140.1 192.126 134.604 204.498 134.818 217.807L134.818 217.813C135.091 240.465 147.627 262.537 164.74 283.01C180.665 302.063 200.378 319.531 217.389 334.605C217.477 334.683 217.564 334.76 217.652 334.838C212.224 323.812 206.292 310.082 202.84 296.12C198.954 280.403 198.142 264.113 205.052 251.042L206.944 247.464L207.83 251.413C213.942 278.661 231.366 295.158 249.381 312.215C250.533 313.306 251.688 314.399 252.842 315.498C271.815 333.553 290.529 352.93 295.134 386.661C303.801 365.335 306.981 349.906 306.62 337.682C306.255 325.341 302.278 316.14 296.447 307.305C293.335 302.59 289.659 297.948 285.723 292.98C275.458 280.02 263.429 264.835 255.069 240.31C252.179 245.575 247.091 249.321 241.114 250.487C233.74 251.926 225.195 249.417 217.85 241.412L216.08 239.484L218.641 238.941C234.181 235.653 240.693 230.319 242.485 224.698C244.3 218.998 241.562 212.162 236.423 205.142L236.423 205.142C219.803 182.422 208.377 156.481 201.042 129.39L201.042 129.39C199.894 125.15 199.239 120.017 198.548 114.614C198.261 112.368 197.968 110.076 197.632 107.782C196.564 100.507 195.046 93.0397 191.938 86.2784C188.582 88.6606 183.708 87.995 181.191 84.4034M294.764 387.567C294.765 387.565 294.765 387.564 294.766 387.563L294.764 387.567ZM219.721 338.964C219.718 338.96 219.716 338.956 219.714 338.951L219.721 338.964ZM154.165 70.1682C153.853 64.9643 156.034 59.3988 160.044 54.2742C164.239 48.9126 170.34 44.1648 177.278 41.0193C189.683 35.3945 204.445 34.9885 215.716 44.9105C210.344 43.8361 203.279 43.5278 196.266 44.4344C186.403 45.7095 176.106 49.4585 170.729 57.4661L170.629 57.6144L170.567 57.782C169.026 61.9628 170.556 66.8461 172.834 71.3438C174.97 75.5593 177.976 79.8318 180.548 83.489C180.766 83.7982 180.98 84.103 181.19 84.4029" fill="url(#paint2_linear_2_2246)"/>
<path fill-rule="evenodd" clip-rule="evenodd" d="M82.447 105.726C105.488 87.3937 131.605 81.3832 148.712 81.4936L154.911 81.5336L149.488 84.537C119.57 101.107 113.475 131.493 114.185 148.336C125.009 132.245 139.119 122.262 152.084 117.94L157.617 116.096L153.833 120.534C125.626 153.612 119.725 191.813 123.852 226.235C127.984 260.694 142.161 291.266 153.946 308.836L151.691 311.087C102.473 277.95 87.8204 235.343 86.1942 214.124C81.5536 220.722 79.8044 228.651 79.6425 236.284C79.4527 245.232 81.4518 253.595 83.3342 258.51L80.7341 260.299C62.6604 244.086 58.054 225.76 59.7326 209.46C61.1438 195.756 66.9855 183.539 72.8439 175.201C69.776 176.501 66.7406 178.341 63.9699 180.342C59.7818 183.367 56.328 186.665 54.4534 188.748L54.4142 188.792L34.3275 208.106L34.7477 203.741C39.4621 154.763 59.3559 124.099 82.447 105.726ZM38.4519 199.636L52.0798 186.532C54.1088 184.285 57.7143 180.855 62.069 177.71C66.4339 174.558 71.6822 171.596 76.9383 170.489L81.522 169.524L78.5184 173.119C72.076 180.829 64.5509 194.365 62.9622 209.793C61.5313 223.689 64.902 239.182 78.3841 253.483C77.1653 248.602 76.262 242.553 76.3965 236.216C76.5963 226.796 79.0967 216.558 86.4742 208.634L89.3344 205.562L89.2856 209.759C89.0848 227.024 100.418 269.432 146.897 303.736C135.957 285.304 124.332 257.514 120.628 226.622C116.622 193.204 121.88 156.064 147.404 123.283C135.761 128.633 123.582 138.744 114.379 154.082L112.012 158.027L111.379 153.47C109.283 138.376 112.907 104.757 142.56 84.9565C126.34 86.1606 104.246 92.5311 84.4685 108.267C62.8071 125.502 43.8244 154.053 38.4519 199.636Z" fill="url(#paint3_linear_2_2246)"/>
<path d="M164.711 20.9351C167.884 20.9351 171.084 21.052 174.323 21.2727C160.548 24.1688 151.261 30.8312 145.486 36.6364C137.045 45.1169 131.816 56.0649 131.204 66.3247C89.2044 79.2078 62.631 96.5714 48.9475 120.299C52.3163 100.805 70.2271 81.8442 100.82 65.8442L112.474 59.7533L99.337 60.2208C89.6467 60.5584 76.8217 66.5195 66.9883 72.8571C72.3993 63.8442 81.1921 53.3247 93.7179 43.974C107.779 33.4546 131.517 20.9351 164.711 20.9351ZM164.711 17.9481C103.434 17.9481 67.1314 59.4416 58.989 82.5714C68.0809 74.3766 86.9802 63.6494 99.428 63.2078C63.2033 82.1558 41.5595 107.13 45.9169 133.883C57.194 102.805 86.7331 82.7792 134.118 68.5714C133.988 50.3377 151.651 22.8052 188.969 22.8052C198.308 22.8052 208.896 24.5325 220.732 28.5584C200.22 21.0649 181.529 17.9481 164.711 17.9481Z" fill="url(#paint4_linear_2_2246)"/>
<path fill-rule="evenodd" clip-rule="evenodd" d="M279.876 84.4762C287.019 81.2333 295.051 81.0427 300.293 81.8403L299.707 85.6921C294.992 84.9746 287.765 85.1736 281.487 88.0238C275.334 90.8173 270.025 96.1693 268.817 106.08C267.592 116.12 270.892 123.3 275.459 128.258C280.085 133.281 286.06 136.065 290.083 137.071L290.166 137.092L323.88 148.762C332.062 150.327 344.36 154.155 354.947 160.644C365.553 167.145 374.848 176.581 375.967 189.442L372.085 189.779C371.126 178.744 363.105 170.214 352.911 163.966C342.758 157.743 330.851 154.046 323.015 152.563L322.874 152.537L289.053 140.829C284.421 139.654 277.784 136.533 272.593 130.898C267.312 125.164 263.576 116.867 264.949 105.608C266.338 94.2203 272.609 87.7757 279.876 84.4762Z" fill="#DA9C23"/>
<path fill-rule="evenodd" clip-rule="evenodd" d="M372.458 128.918C372.46 128.917 372.461 128.917 372.824 130.831C373.187 132.745 373.188 132.745 373.189 132.745L373.188 132.745L373.161 132.75C373.133 132.756 373.086 132.766 373.022 132.781C372.893 132.81 372.695 132.857 372.433 132.926C371.911 133.065 371.14 133.291 370.184 133.635C368.272 134.324 365.633 135.48 362.773 137.336C357.071 141.034 350.462 147.527 346.939 158.765L343.221 157.599C347.06 145.356 354.322 138.173 360.652 134.067C363.808 132.02 366.725 130.74 368.864 129.97C369.935 129.584 370.814 129.325 371.434 129.16C371.745 129.078 371.991 129.019 372.165 128.98C372.252 128.96 372.32 128.946 372.37 128.935L372.43 128.923L372.449 128.919L372.456 128.918L372.458 128.918Z" fill="#DA9C23"/>
<path fill-rule="evenodd" clip-rule="evenodd" d="M351.489 159.136C358.422 162.866 363.275 166.967 366.715 170.942C366.72 169.941 366.825 168.977 367.075 168.102C367.223 167.584 367.385 167.07 367.538 166.584L367.559 166.516C367.707 166.048 367.847 165.607 367.973 165.172C368.241 164.252 368.417 163.474 368.461 162.79C368.502 162.125 368.414 161.625 368.212 161.213C368.014 160.809 367.632 160.335 366.829 159.846C365.813 159.228 364.065 158.815 361.737 158.657C359.473 158.503 356.916 158.604 354.478 158.817C353.44 158.908 352.432 159.018 351.489 159.136ZM368.497 180.462C368.57 180.699 368.645 180.934 368.719 181.166C369.404 183.295 370.14 185.23 370.704 186.631C370.986 187.333 371.226 187.903 371.397 188.3C371.482 188.499 371.55 188.654 371.597 188.761L371.652 188.884L371.667 188.918L371.671 188.927L371.672 188.93C371.672 188.93 371.673 188.931 373.448 188.13L371.673 188.931L375.304 187.537C375.213 187.251 375.113 186.918 375.002 186.544C374.48 184.791 373.687 182.13 372.128 179.012C371.601 177.279 371.143 175.488 370.871 173.828C370.54 171.806 370.526 170.207 370.821 169.172C370.952 168.712 371.099 168.247 371.253 167.757L371.279 167.676C371.423 167.219 371.575 166.74 371.714 166.262C372.006 165.259 372.278 164.153 372.349 163.035C372.421 161.897 372.289 160.679 371.711 159.499C371.129 158.311 370.173 157.321 368.856 156.518L368.855 156.517C367.01 155.395 364.48 154.938 362.001 154.77C359.458 154.597 356.68 154.714 354.139 154.936C351.589 155.159 349.23 155.492 347.511 155.769C346.65 155.908 345.947 156.033 345.456 156.124C345.211 156.169 345.019 156.206 344.887 156.232C344.821 156.244 344.77 156.255 344.734 156.262L344.694 156.27L344.679 156.273C344.679 156.273 344.677 156.273 345.067 158.182L344.677 156.273L338.656 157.502L344.286 159.966C355.928 165.063 362.35 171.141 366.048 176.408C367.039 177.821 367.84 179.18 368.497 180.462Z" fill="#DA9C23"/>
<path fill-rule="evenodd" clip-rule="evenodd" d="M216.445 103.913C216.257 81.762 234.253 64.8511 250.368 56.0812L252.23 59.5033C236.526 68.0494 220.172 83.9307 220.341 103.88C220.509 123.74 237.078 148.935 290.38 176.128C293.078 177.088 296.857 179.111 299.62 182.21C302.494 185.435 304.327 189.932 302.497 195.421C301.686 197.855 301.731 201.506 302.692 205.804C303.642 210.049 305.436 214.701 307.866 219.011C310.298 223.327 313.323 227.221 316.687 230.015C320.053 232.811 323.645 234.416 327.273 234.416V238.312C322.459 238.312 318.015 236.183 314.198 233.012C310.378 229.84 307.072 225.537 304.472 220.924C301.869 216.306 299.929 211.299 298.89 206.655C297.864 202.066 297.665 197.599 298.801 194.189C300.089 190.327 298.891 187.249 296.711 184.803C294.464 182.281 291.243 180.552 288.97 179.762L288.845 179.718L288.726 179.658C235.105 152.327 216.633 126.138 216.445 103.913Z" fill="url(#paint5_linear_2_2246)"/>
<path fill-rule="evenodd" clip-rule="evenodd" d="M216.445 103.913C216.257 81.762 234.253 64.8511 250.368 56.0812L252.23 59.5033C236.526 68.0494 220.172 83.9307 220.341 103.88C220.509 123.74 237.078 148.935 290.38 176.128C293.078 177.088 296.857 179.111 299.62 182.21C302.494 185.435 304.327 189.932 302.497 195.421C301.686 197.855 301.731 201.506 302.692 205.804C303.642 210.049 305.436 214.701 307.866 219.011C310.298 223.327 313.323 227.221 316.687 230.015C320.053 232.811 323.645 234.416 327.273 234.416V238.312C322.459 238.312 318.015 236.183 314.198 233.012C310.378 229.84 307.072 225.537 304.472 220.924C301.869 216.306 299.929 211.299 298.89 206.655C297.864 202.066 297.665 197.599 298.801 194.189C300.089 190.327 298.891 187.249 296.711 184.803C294.464 182.281 291.243 180.552 288.97 179.762L288.845 179.718L288.726 179.658C235.105 152.327 216.633 126.138 216.445 103.913Z" fill="black" fill-opacity="0.2"/>
<path fill-rule="evenodd" clip-rule="evenodd" d="M268.307 114.566C268.308 114.566 268.309 114.566 268.169 112.623C268.029 110.68 268.03 110.68 268.031 110.68L268.033 110.68L268.039 110.68L268.057 110.678L268.115 110.675C268.164 110.672 268.232 110.668 268.32 110.664C268.495 110.656 268.747 110.647 269.066 110.641C269.706 110.63 270.62 110.634 271.749 110.69C274.004 110.802 277.133 111.123 280.642 111.966C287.648 113.648 296.318 117.444 302.484 125.933C307.975 133.498 315.781 139.846 323.149 144.56C330.535 149.285 337.302 152.256 340.589 153.161L340.593 153.162C342.006 153.554 343.071 154.613 343.695 155.234C343.768 155.307 343.835 155.373 343.895 155.431C344.692 156.203 344.916 156.248 345.042 156.247L345.092 160.143C343.185 160.167 341.897 158.92 341.196 158.241L341.182 158.228C340.271 157.345 339.939 157.024 339.552 156.916C335.762 155.872 328.633 152.693 321.05 147.842C313.447 142.978 305.209 136.32 299.331 128.222C293.895 120.738 286.196 117.306 279.733 115.755C276.508 114.98 273.627 114.684 271.556 114.581C270.523 114.53 269.695 114.527 269.133 114.537C268.853 114.542 268.638 114.55 268.498 114.556C268.428 114.559 268.377 114.562 268.345 114.564L268.312 114.566L268.307 114.566ZM268.307 114.566C268.307 114.566 268.307 114.566 268.307 114.566V114.566Z" fill="#DA9C23"/>
<path fill-rule="evenodd" clip-rule="evenodd" d="M277.889 134.122C277.888 134.122 277.888 134.122 278.223 133.208C278.559 132.293 278.559 132.293 278.558 132.293L278.559 132.293L278.564 132.295L278.592 132.305C278.618 132.314 278.658 132.328 278.712 132.346C278.819 132.382 278.981 132.435 279.192 132.499C279.614 132.627 280.229 132.798 280.991 132.968C282.519 133.31 284.617 133.643 286.918 133.618C291.518 133.57 296.795 132.11 300.083 126.568L301.759 127.562C297.996 133.903 291.925 135.514 286.939 135.566C284.446 135.593 282.193 135.233 280.566 134.87C279.751 134.687 279.089 134.503 278.627 134.363C278.396 134.293 278.215 134.235 278.09 134.192C278.028 134.171 277.979 134.155 277.945 134.143L277.905 134.128L277.894 134.124L277.89 134.123L277.889 134.122Z" fill="#DA9C23"/>
<path fill-rule="evenodd" clip-rule="evenodd" d="M251.803 55.6017L251.338 57.4935L250.869 55.6027L251.336 55.487L251.803 55.6017ZM306.202 93.6997C305.096 92.0195 304.454 90.4814 303.869 88.9048C303.765 88.6247 303.661 88.3378 303.556 88.0455C303.072 86.7113 302.548 85.2622 301.782 83.8058C299.828 80.091 296.394 76.4233 288.225 71.8699C276.523 65.3482 267.46 61.2916 261.301 58.8601C258.222 57.6444 255.868 56.835 254.274 56.327C253.477 56.0729 252.87 55.8942 252.457 55.7777C252.25 55.7195 252.092 55.6768 251.983 55.648C251.928 55.6336 251.886 55.6227 251.856 55.6151L251.82 55.606L251.809 55.6033L251.805 55.6024L251.803 55.6017C251.802 55.6016 251.803 55.6017 251.338 57.4935C250.869 55.6027 250.868 55.603 250.867 55.6033L250.863 55.6042L250.853 55.6067L250.82 55.6152C250.792 55.6223 250.753 55.6324 250.704 55.6455C250.604 55.6719 250.462 55.7106 250.28 55.7624C249.915 55.8661 249.39 56.0224 248.73 56.2378C247.41 56.6685 245.546 57.3366 243.336 58.2944C238.923 60.2072 233.098 63.2911 227.48 67.9764C216.174 77.407 205.805 93.2735 209.36 118.685C212.867 143.758 227.037 170.933 240.187 191.706C246.781 202.122 253.156 210.988 257.884 217.251C260.248 220.383 262.202 222.865 263.567 224.567C264.249 225.419 264.784 226.075 265.15 226.519C265.332 226.742 265.473 226.911 265.568 227.026L265.677 227.156L265.713 227.199L265.715 227.201C265.716 227.202 265.716 227.202 267.206 225.948L265.716 227.202L266.128 227.691L266.749 227.841L267.206 225.948C266.749 227.841 266.748 227.841 266.749 227.841L266.799 227.854L266.944 227.888C267.072 227.919 267.261 227.964 267.508 228.022C268.001 228.139 268.725 228.309 269.65 228.523C271.499 228.95 274.154 229.551 277.378 230.25C283.824 231.648 292.556 233.436 301.685 234.998C310.804 236.558 320.366 237.899 328.459 238.39C332.504 238.635 336.229 238.671 339.372 238.404C342.457 238.141 345.219 237.57 347.166 236.437C349.049 235.34 350.971 233.379 352.866 230.98C354.789 228.545 356.802 225.508 358.837 222.094C362.91 215.265 367.152 206.799 371.038 198.343C374.928 189.88 378.477 181.39 381.161 174.498C383.817 167.677 385.694 162.253 386.153 160.015C387.05 155.637 387.103 149.144 385.403 143.162C383.703 137.182 380.125 131.338 373.469 129.006M268.29 224.204C268.327 224.213 268.365 224.222 268.405 224.231C268.892 224.346 269.609 224.515 270.526 224.727C272.361 225.15 274.999 225.748 278.204 226.443C284.615 227.833 293.287 229.609 302.342 231.158C311.406 232.708 320.809 234.023 328.695 234.501C332.64 234.74 336.159 234.767 339.042 234.522C341.983 234.272 344.03 233.754 345.205 233.07C346.444 232.348 348 230.854 349.809 228.565C351.588 226.312 353.504 223.431 355.491 220.099C359.463 213.438 363.64 205.11 367.498 196.716C371.353 188.328 374.872 179.91 377.53 173.084C380.216 166.188 381.956 161.085 382.336 159.232C383.116 155.427 383.174 149.57 381.655 144.227C380.136 138.883 377.165 134.429 372.18 132.683C360.962 128.745 340.345 120.638 326.931 115.304C317.26 111.46 308.93 104.821 303.15 96.1325C303.15 96.132 303.149 96.1314 303.149 96.1308L304.771 95.0519L303.151 96.1337C303.151 96.1333 303.15 96.1329 303.15 96.1325C303.122 96.0912 303.107 96.0688 303.094 96.0502C303.091 96.0459 303.089 96.0428 303.088 96.0408L303.094 96.0488C303.089 96.0417 303.085 96.0375 303.085 96.0375C303.085 96.0375 303.086 96.0386 303.088 96.0408L303.04 95.9808L302.991 95.9077C301.622 93.8432 300.851 91.969 300.217 90.2603C300.092 89.9236 299.974 89.5992 299.859 89.2842C299.382 87.9688 298.964 86.8184 298.333 85.6195C296.857 82.8116 294.119 79.6157 286.328 75.273C286.328 75.273 286.328 75.273 286.328 75.273C274.773 68.8336 265.867 64.8512 259.871 62.484C256.872 61.3004 254.602 60.5205 253.091 60.0391C252.336 59.7984 251.771 59.6323 251.4 59.5277C251.379 59.522 251.36 59.5165 251.341 59.5112C251.021 59.6021 250.546 59.7436 249.939 59.9417C248.718 60.3399 246.969 60.9659 244.886 61.8691C240.712 63.6784 235.233 66.5839 229.976 70.9684C219.535 79.6774 209.879 94.2719 213.218 118.146C216.605 142.359 230.393 168.95 243.479 189.622C250.003 199.928 256.314 208.704 260.994 214.903C263.333 218.002 265.263 220.455 266.606 222.131C267.278 222.968 267.803 223.612 268.159 224.044C268.206 224.101 268.249 224.154 268.29 224.204ZM306.202 93.6997C306.281 93.8047 306.347 93.9038 306.382 93.9565L306.391 93.9702L306.393 93.9731C311.722 101.985 319.415 108.124 328.37 111.683C341.802 117.024 362.341 125.1 373.469 129.006" fill="url(#paint6_linear_2_2246)"/>
<defs>
<linearGradient id="paint0_linear_2_2246" x1="231.578" y1="71.8383" x2="231.578" y2="0" gradientUnits="userSpaceOnUse">
<stop offset="0.00591689" stop-color="#BB5C23"/>
<stop offset="0.3682" stop-color="#B81622"/>
<stop offset="0.3724" stop-color="#B71622"/>
<stop offset="0.5452" stop-color="#981016"/>
<stop offset="0.6923" stop-color="#860D0F"/>
<stop offset="0.7953" stop-color="#7F0C0C"/>
<stop offset="0.8348" stop-color="#84110C"/>
<stop offset="0.8839" stop-color="#92210C"/>
<stop offset="0.938" stop-color="#A93A0B"/>
<stop offset="0.9955" stop-color="#C85D0B"/>
<stop offset="1" stop-color="#CB600B"/>
</linearGradient>
<linearGradient id="paint1_linear_2_2246" x1="279.778" y1="310.219" x2="327.181" y2="262.742" gradientUnits="userSpaceOnUse">
<stop offset="0.00591689" stop-color="#DA9C23"/>
<stop offset="0.1347" stop-color="#D69422"/>
<stop offset="0.3345" stop-color="#C97E1E"/>
<stop offset="0.5803" stop-color="#B55A18"/>
<stop offset="0.8603" stop-color="#9A2910"/>
<stop offset="0.877" stop-color="#98260F"/>
<stop offset="1" stop-color="#BB620B"/>
</linearGradient>
<linearGradient id="paint2_linear_2_2246" x1="220.739" y1="390.413" x2="220.739" y2="34.102" gradientUnits="userSpaceOnUse">
<stop offset="0.00591689" stop-color="#DA9C23"/>
<stop offset="0.1347" stop-color="#D69422"/>
<stop offset="0.3345" stop-color="#C97E1E"/>
<stop offset="0.5803" stop-color="#B55A18"/>
<stop offset="0.8603" stop-color="#9A2910"/>
<stop offset="0.877" stop-color="#98260F"/>
<stop offset="1" stop-color="#BB620B"/>
</linearGradient>
<linearGradient id="paint3_linear_2_2246" x1="97.4649" y1="312.6" x2="97.4649" y2="79.9792" gradientUnits="userSpaceOnUse">
<stop offset="0.00591689" stop-color="#DA9C23"/>
<stop offset="0.1347" stop-color="#D69422"/>
<stop offset="0.3345" stop-color="#C97E1E"/>
<stop offset="0.5803" stop-color="#B55A18"/>
<stop offset="0.8603" stop-color="#9A2910"/>
<stop offset="0.877" stop-color="#98260F"/>
<stop offset="1" stop-color="#BB620B"/>
</linearGradient>
<linearGradient id="paint4_linear_2_2246" x1="133.056" y1="133.872" x2="133.056" y2="17.9418" gradientUnits="userSpaceOnUse">
<stop offset="0.00591689" stop-color="#BB5C23"/>
<stop offset="0.3682" stop-color="#B81622"/>
<stop offset="0.3724" stop-color="#B71622"/>
<stop offset="0.5452" stop-color="#981016"/>
<stop offset="0.6923" stop-color="#860D0F"/>
<stop offset="0.7953" stop-color="#7F0C0C"/>
<stop offset="0.8348" stop-color="#84110C"/>
<stop offset="0.8839" stop-color="#92210C"/>
<stop offset="0.938" stop-color="#A93A0B"/>
<stop offset="0.9955" stop-color="#C85D0B"/>
<stop offset="1" stop-color="#CB600B"/>
</linearGradient>
<linearGradient id="paint5_linear_2_2246" x1="327.79" y1="147.198" x2="214.39" y2="147.198" gradientUnits="userSpaceOnUse">
<stop stop-color="#CEA100"/>
<stop offset="0.0216" stop-color="#C89705"/>
<stop offset="0.0642" stop-color="#C08C0B"/>
<stop offset="0.1242" stop-color="#BC850F"/>
<stop offset="0.2907" stop-color="#BB8310"/>
<stop offset="0.5451" stop-color="#BB8110"/>
<stop offset="0.6891" stop-color="#B9780F"/>
<stop offset="0.8054" stop-color="#B76B0E"/>
<stop offset="0.9065" stop-color="#B4570D"/>
<stop offset="0.9977" stop-color="#B03E0B"/>
<stop offset="1" stop-color="#B03D0B"/>
</linearGradient>
<linearGradient id="paint6_linear_2_2246" x1="386.773" y1="147.037" x2="208.647" y2="147.037" gradientUnits="userSpaceOnUse">
<stop stop-color="#CEA100"/>
<stop offset="0.2907" stop-color="#BB8310"/>
<stop offset="0.5451" stop-color="#BB8110"/>
<stop offset="0.6891" stop-color="#B9780F"/>
<stop offset="0.8054" stop-color="#B76B0E"/>
<stop offset="0.9065" stop-color="#B4570D"/>
<stop offset="0.9977" stop-color="#B03E0B"/>
<stop offset="1" stop-color="#B03D0B"/>
</linearGradient>
</defs>
</svg>
